<svg id="visual" viewBox="0 0 900 600" width="900" height="600" xmlns="http://www.w3.org/2000/svg" xmlns:xlink="http://www.w3.org/1999/xlink" version="1.1"><path d="M0 439L129 444L257 365L386 367L514 444L643 382L771 396L900 390L900 601L771 601L643 601L514 601L386 601L257 601L129 601L0 601Z" fill="#eeeeee"></path><path d="M0 421L129 457L257 471L386 471L514 423L643 447L771 414L900 460L900 601L771 601L643 601L514 601L386 601L257 601L129 601L0 601Z" fill="#adadad"></path><path d="M0 474L129 448L257 470L386 474L514 497L643 462L771 474L900 453L900 601L771 601L643 601L514 601L386 601L257 601L129 601L0 601Z" fill="#707070"></path><path d="M0 493L129 521L257 496L386 492L514 517L643 525L771 538L900 496L900 601L771 601L643 601L514 601L386 601L257 601L129 601L0 601Z" fill="#383838"></path><path d="M0 568L129 531L257 533L386 569L514 564L643 556L771 544L900 542L900 601L771 601L643 601L514 601L386 601L257 601L129 601L0 601Z" fill="#000000"></path></svg>